<svg width="149" height="64" viewBox="0 0 149 64" fill="none" xmlns="http://www.w3.org/2000/svg">
<path d="M137.617 63.2466C131.297 63.2466 126.233 58.2777 126.233 52.1719C126.233 45.9819 131.297 41.013 137.617 41.013C139.876 41.013 141.927 41.6867 143.559 42.8658V33.1807H149V62.6571H143.894V61.1833C142.178 62.4886 140.044 63.2466 137.617 63.2466ZM137.617 58.2777C140.881 58.2777 143.559 55.4985 143.559 52.1719C143.559 48.7611 140.881 45.9819 137.617 45.9819C134.31 45.9819 131.674 48.7611 131.674 52.1719C131.674 55.4985 134.31 58.2777 137.617 58.2777Z" fill="black"/>
<path d="M117.832 62.6571V47.9189H123.273V62.6571H117.832ZM117.832 41.6025V33.1807H123.273V41.6025H117.832Z" fill="black"/>
<path d="M107.729 62.6587V49.5628L99.4009 57.5635V62.6587H93.9603V49.6049L85.632 57.6898V62.6587H80.1914V41.6041H85.632V50.4471L94.7555 41.6041H99.4009V50.3207L108.524 41.6041H113.17V62.6587H107.729Z" fill="black"/>
<path d="M70.4999 62.6571V49.3085L60.9579 57.7724V62.6571H55.5173V33.1807H60.9579V50.8244L71.3369 41.6025H75.9405V62.6571H70.4999Z" fill="black"/>
<path d="M41.8604 63.2482C35.6246 63.2482 30.5607 58.2372 30.5607 52.1314C30.5607 46.0256 35.6665 41.0146 41.8604 41.0146C48.0961 41.0146 53.1601 46.0677 53.1601 52.1314H47.7195C47.7195 48.7627 45.0829 45.9835 41.8604 45.9835C38.6379 45.9835 36.0013 48.8048 36.0013 52.1314C36.0013 55.5422 38.6379 58.2793 41.8604 58.2793C43.4926 58.2793 44.8318 57.6477 46.0036 56.4686L49.8539 59.9637C47.8869 61.9428 44.8736 63.2482 41.8604 63.2482Z" fill="black"/>
<path d="M9.12267 63.2456C4.64464 63.2456 0.919922 59.7084 0.919922 55.2448V47.9178H6.36052V55.3711C6.36052 57.0134 7.57419 58.2767 9.08082 58.2767C10.5874 58.2767 11.6337 57.0134 11.843 55.2869L13.6844 40.2118C14.2703 35.8746 17.5347 32.5901 21.8453 32.5901C26.3233 32.5901 30.048 36.1273 30.048 40.5908V47.9178H24.6074V40.4645C24.6074 38.8222 23.3938 37.559 21.929 37.559C20.3805 37.559 19.3343 38.8222 19.125 40.5487L17.2836 55.6238C16.6977 59.961 13.4333 63.2456 9.12267 63.2456Z" fill="black"/>
<path d="M114.536 30.066V0.589539H119.977V21.5178L130.691 9.01137H137.471L129.142 18.8228L137.889 30.066H131.36L125.711 22.8653L119.6 30.066H114.536Z" fill="black"/>
<path d="M104.878 30.066V15.3277H110.318V30.066H104.878ZM104.878 9.01137V0.589539H110.318V9.01137H104.878Z" fill="black"/>
<path d="M90.9281 30.6555C88.5007 30.6555 86.3664 29.8975 84.6505 28.55V30.066H79.5447V0.589539H84.9853V10.2325C86.6593 9.05348 88.6681 8.42184 90.9281 8.42184C97.2475 8.42184 102.311 13.3907 102.311 19.4966C102.311 25.6866 97.2894 30.6555 90.9281 30.6555ZM90.9281 25.6866C94.2343 25.6866 96.8709 22.9074 96.8709 19.4966C96.8709 16.1699 94.2343 13.3907 90.9281 13.3907C87.6637 13.3907 84.9853 16.1699 84.9853 19.4966C84.9853 22.9074 87.6219 25.6866 90.9281 25.6866Z" fill="black"/>
<path d="M70.4998 38.4861V30.8223L53.0898 9.0097H59.5767L70.4998 22.4846V9.0097H75.9404V38.4861H70.4998Z" fill="black"/>
<path d="M31.6931 30.0643V25.6849L44.1228 13.9786H31.8605V9.0097H52.4511V13.3891L40.0214 25.0954H52.2837V30.0643H31.6931Z" fill="black"/>
<path d="M15.4848 30.6555C6.86353 30.6555 0 23.7075 0 15.3277C0 6.94801 6.86353 0 15.4848 0C24.1479 0 30.9696 6.99012 30.9696 15.3277H25.529C25.529 9.55878 20.9254 4.96888 15.4848 4.96888C10.0023 4.96888 5.4406 9.60089 5.4406 15.3277C5.4406 21.0967 10.0023 25.6866 15.4848 25.6866C18.2469 25.6866 20.6324 24.6339 22.5994 22.6547L26.4497 26.1498C24.0642 28.55 20.1721 30.6555 15.4848 30.6555Z" fill="black"/>
</svg>
