<?xml version="1.0" encoding="UTF-8"?>
<svg id="Ebene_1" xmlns="http://www.w3.org/2000/svg" version="1.1" viewBox="0 0 907.1 510.2">
  <!-- Generator: Adobe Illustrator 29.5.1, SVG Export Plug-In . SVG Version: 2.1.0 Build 141)  -->
  <path d="M835.1,412.2c-19.7,0-35.5-16.5-35.5-36.2s15.7-36.7,35.5-36.7,35.5,16.5,35.5,36.7c0,19.7-16,36.2-35.5,36.2M835.1,441.7c14.5,0,27.2-4.5,37.5-12.2v8.7h30.5v-175h-32.5v57.5c-9.7-7-22-11-35.5-11-37.7,0-68,29.5-68,66.2s30.2,65.7,68,65.7M714.4,313.2h32.5v-50h-32.5v50ZM714.4,438.2h32.5v-87.5h-32.5v87.5ZM655.4,438.2h32.5v-125h-27.7l-54.5,51.7v-51.7h-27.7l-54.5,52.5v-52.5h-32.5v125h32.5v-29.5l49.7-48v77.5h32.5v-30.2l49.7-47.5v77.7h0ZM434.1,438.2h32.5v-125h-27.5l-62,54.7v-104.7h-32.5v175h32.5v-29l57-50.2v79.2h0ZM260.6,441.7c18,0,36-7.7,47.7-19.5l-23-20.7c-7,7-15,10.7-24.7,10.7-19.2,0-35-16.2-35-36.5s15.7-36.5,35-36.5,35,16.5,35,36.5h32.5c0-36-30.2-66-67.5-66s-67.5,29.7-67.5,66c0,36.2,30.2,66,67.5,66M62.7,441.7c25.7,0,45.2-19.5,48.7-45.2l11-89.5c1.2-10.2,7.5-17.7,16.7-17.7s16,7.5,16,17.2v44.2h32.5v-43.5c0-26.5-22.2-47.5-49-47.5s-45.2,19.5-48.7,45.2l-11,89.5c-1.2,10.2-7.5,17.7-16.5,17.7s-16.2-7.5-16.2-17.2v-44.2H13.7v43.5c0,26.5,22.2,47.5,49,47.5"/>
  <path d="M712.9,247h30.2l36.5-42.7,33.7,42.7h39l-52.2-66.7,49.7-58.2h-40.5l-64,74.2v-124.2h-32.5v175ZM650.2,122h32.5v-50h-32.5v50ZM650.2,247h32.5v-87.5h-32.5v87.5ZM562,221c-19.7,0-35.5-16.5-35.5-36.7s16-36.2,35.5-36.2,35.5,16.5,35.5,36.2-15.7,36.7-35.5,36.7M562,250.5c38,0,68-29.5,68-66.2s-30.2-65.7-68-65.7-25.5,3.7-35.5,10.7v-57.2h-32.5v175h30.5v-9c10.2,8,23,12.5,37.5,12.5M435,297h32.5V122h-32.5v80l-65.2-80h-38.7l104,129.5v45.5h0ZM198.2,247h123v-29.5h-73.2l74.2-69.5v-26h-123v29.5h73.2l-74.2,69.5v26h0ZM96.5,250.5c28,0,51.2-12.5,65.5-26.7l-23-20.7c-11.7,11.7-26,18-42.5,18-32.7,0-60-27.2-60-61.5s27.2-61.5,60-61.5,60,27.2,60,61.5h32.5c0-49.5-40.7-91-92.5-91S4,109.8,4,159.5s41,91,92.5,91"/>
</svg>